<svg width="203" height="38" viewBox="0 0 203 38" fill="none" xmlns="http://www.w3.org/2000/svg">
<rect y="0.954838" width="36.0903" height="36.0903" rx="6.01505" fill="#ECF0FF"/>
<path d="M16.1835 11.6224C16.6721 11.3439 17.2312 11.1968 17.8011 11.1968C18.3709 11.1968 18.93 11.3439 19.4186 11.6224L24.8983 14.7465C25.1308 14.8792 25.3232 15.0668 25.4568 15.291C25.5904 15.5153 25.6607 15.7686 25.6607 16.0263V22.4506C25.6607 22.9663 25.5201 23.4733 25.2526 23.9221C24.9852 24.3709 24.5999 24.7463 24.1344 25.0116L19.4186 27.6996C18.93 27.9782 18.3709 28.1253 17.8011 28.1253C17.2312 28.1253 16.6721 27.9782 16.1835 27.6996L11.4678 25.0116C11.0022 24.7463 10.617 24.3709 10.3495 23.9221C10.082 23.4733 9.9414 22.9663 9.94141 22.4506V16.0263C9.94162 15.7684 10.0121 15.5151 10.146 15.2908C10.2798 15.0665 10.4726 14.879 10.7054 14.7465L16.1835 11.6224Z" stroke="#5925DC" stroke-width="2.56" stroke-linecap="round" stroke-linejoin="round"/>
<path d="M9.94141 15.1793L17.8011 19.2994M17.8011 19.2994L25.6607 15.1793M17.8011 19.2994V27.126" stroke="#5925DC" stroke-width="2.56" stroke-linejoin="round"/>
<path d="M10.122 7.49992H7.56195C6.883 7.49992 6.23185 7.75614 5.75176 8.21223C5.27167 8.66832 5.00195 9.28691 5.00195 9.93192V12.3639M25.482 31.8199H28.042C28.7209 31.8199 29.3721 31.5637 29.8521 31.1076C30.3322 30.6515 30.602 30.0329 30.602 29.3879V26.9559M30.602 12.3639V9.93192C30.602 9.28691 30.3322 8.66832 29.8521 8.21223C29.3721 7.75614 28.7209 7.49992 28.042 7.49992H25.482M5.00195 26.9559V29.3879C5.00195 30.0329 5.27167 30.6515 5.75176 31.1076C6.23185 31.5637 6.883 31.8199 7.56195 31.8199H10.122" stroke="#5925DC" stroke-width="2.15579" stroke-linecap="round" stroke-linejoin="round"/>
<path d="M56.8642 29.504C55.0535 29.504 53.4109 29.14 51.9362 28.412C50.4802 27.6653 49.3229 26.564 48.4642 25.108C47.6055 23.652 47.1762 21.8693 47.1762 19.76C47.1762 18.1547 47.4375 16.7453 47.9602 15.532C48.4829 14.3187 49.1922 13.3013 50.0882 12.48C51.0029 11.6587 52.0482 11.0427 53.2242 10.632C54.4189 10.2213 55.6789 10.016 57.0042 10.016C58.0682 10.016 59.0482 10.1373 59.9442 10.38C60.8402 10.6227 61.6802 10.9587 62.4642 11.388L62.5762 14.832H62.2962L60.8962 12.592C60.7095 12.2373 60.5042 11.92 60.2802 11.64C60.0562 11.3413 59.7762 11.1173 59.4402 10.968C59.1602 10.8373 58.8802 10.744 58.6002 10.688C58.3389 10.6133 58.0029 10.576 57.5922 10.576C56.5095 10.576 55.5202 10.8653 54.6242 11.444C53.7469 12.0227 53.0375 12.984 52.4962 14.328C51.9735 15.6533 51.7122 17.4733 51.7122 19.788C51.7122 22.084 51.9642 23.904 52.4682 25.248C52.9722 26.5733 53.6535 27.5253 54.5122 28.104C55.3895 28.664 56.3695 28.944 57.4522 28.944C58.0495 28.944 58.5255 28.9067 58.8802 28.832C59.2349 28.7387 59.5895 28.608 59.9442 28.44C60.2989 28.2907 60.5695 28.076 60.7562 27.796C60.9429 27.4973 61.1109 27.18 61.2602 26.844L62.4922 24.1H62.7722L62.6882 28.104C61.9042 28.5147 61.0269 28.8507 60.0562 29.112C59.0855 29.3733 58.0215 29.504 56.8642 29.504ZM69.4513 29.42C68.0326 29.42 66.8006 29.1307 65.7553 28.552C64.71 27.9547 63.898 27.1147 63.3193 26.032C62.7593 24.9493 62.4793 23.68 62.4793 22.224C62.4793 20.768 62.778 19.508 63.3753 18.444C63.9913 17.38 64.822 16.5587 65.8673 15.98C66.9313 15.4013 68.126 15.112 69.4513 15.112C70.7766 15.112 71.962 15.4013 73.0073 15.98C74.0526 16.54 74.874 17.352 75.4713 18.416C76.0873 19.48 76.3953 20.7493 76.3953 22.224C76.3953 23.6987 76.106 24.9773 75.5273 26.06C74.9673 27.124 74.1646 27.9547 73.1193 28.552C72.0926 29.1307 70.87 29.42 69.4513 29.42ZM69.4513 28.86C70.1046 28.86 70.6273 28.6733 71.0193 28.3C71.4113 27.9267 71.6913 27.264 71.8593 26.312C72.046 25.36 72.1393 24.016 72.1393 22.28C72.1393 20.5253 72.046 19.172 71.8593 18.22C71.6913 17.268 71.4113 16.6053 71.0193 16.232C70.6273 15.8587 70.1046 15.672 69.4513 15.672C68.798 15.672 68.266 15.8587 67.8553 16.232C67.4633 16.6053 67.174 17.268 66.9873 18.22C66.8193 19.172 66.7353 20.5253 66.7353 22.28C66.7353 24.016 66.8193 25.36 66.9873 26.312C67.174 27.264 67.4633 27.9267 67.8553 28.3C68.266 28.6733 68.798 28.86 69.4513 28.86ZM82.0491 24.156C80.7611 24.156 79.6691 23.9413 78.7731 23.512V24.464C78.7731 25.0427 79.0625 25.388 79.6411 25.5L84.9051 26.48C85.7825 26.648 86.5758 26.872 87.2851 27.152C87.9945 27.4133 88.5638 27.796 88.9931 28.3C89.4225 28.7853 89.6371 29.4573 89.6371 30.316C89.6371 31.2307 89.3385 32.0707 88.7411 32.836C88.1438 33.62 87.2571 34.2453 86.0811 34.712C84.9238 35.1973 83.4771 35.44 81.7411 35.44C80.2478 35.44 79.0624 35.2813 78.1851 34.964C77.3078 34.6653 76.6824 34.2733 76.3091 33.788C75.9544 33.3027 75.7771 32.7893 75.7771 32.248C75.7771 31.576 76.0011 30.8947 76.4491 30.204C76.9158 29.532 77.4851 28.9907 78.1571 28.58C77.5785 28.356 77.1584 28.0667 76.8971 27.712C76.6358 27.3573 76.5051 26.9747 76.5051 26.564C76.5051 26.1907 76.5984 25.8453 76.7851 25.528C76.9904 25.192 77.2331 24.856 77.5131 24.52L78.4371 23.344C77.0744 22.56 76.3931 21.328 76.3931 19.648C76.3931 18.304 76.8691 17.212 77.8211 16.372C78.7918 15.532 80.2105 15.112 82.0771 15.112C83.0291 15.112 83.8598 15.224 84.5691 15.448C85.2971 15.672 85.8945 15.9893 86.3611 16.4C86.9585 16.3067 87.5185 16.1573 88.0411 15.952C88.5825 15.728 89.0678 15.4293 89.4971 15.056L89.8891 15.336V16.764H86.7251C87.3971 17.5107 87.7331 18.472 87.7331 19.648C87.7331 20.9547 87.2478 22.0373 86.2771 22.896C85.3251 23.736 83.9158 24.156 82.0491 24.156ZM82.0211 23.596C82.7678 23.596 83.3091 23.288 83.6451 22.672C83.9998 22.056 84.1771 21.0293 84.1771 19.592C84.1771 18.1547 83.9998 17.1467 83.6451 16.568C83.3091 15.9707 82.7865 15.672 82.0771 15.672C81.3865 15.672 80.8638 15.98 80.5091 16.596C80.1545 17.1933 79.9771 18.2107 79.9771 19.648C79.9771 21.0853 80.1358 22.1027 80.4531 22.7C80.7891 23.2973 81.3118 23.596 82.0211 23.596ZM77.8491 31.352C77.8491 32.4533 78.1851 33.284 78.8571 33.844C79.5478 34.404 80.6305 34.684 82.1051 34.684C83.6545 34.684 84.8211 34.432 85.6051 33.928C86.3891 33.424 86.7811 32.7147 86.7811 31.8C86.7811 31.2773 86.5851 30.8573 86.1931 30.54C85.8198 30.2227 85.1758 29.98 84.2611 29.812L79.1931 28.86C79.0438 28.8227 78.8945 28.7853 78.7451 28.748C78.4838 29.1213 78.2691 29.5413 78.1011 30.008C77.9331 30.4933 77.8491 30.9413 77.8491 31.352ZM89.1401 29V28.72L89.5321 28.608C90.1854 28.4213 90.5121 27.964 90.5121 27.236V18.472C90.5121 18.0613 90.4468 17.7627 90.3161 17.576C90.1854 17.3707 89.9334 17.2307 89.5601 17.156L89.1401 17.044V16.764L93.9281 15.14L94.2081 15.42L94.4321 17.1C95.0854 16.5213 95.8228 16.0453 96.6441 15.672C97.4655 15.2987 98.2775 15.112 99.0801 15.112C100.312 15.112 101.255 15.448 101.908 16.12C102.58 16.792 102.916 17.8187 102.916 19.2V27.264C102.916 27.992 103.271 28.4493 103.98 28.636L104.232 28.72V29H97.6241V28.72L97.9881 28.608C98.6415 28.4027 98.9681 27.9453 98.9681 27.236V18.304C98.9681 17.1093 98.3708 16.512 97.1761 16.512C96.3548 16.512 95.4588 16.9227 94.4881 17.744V27.264C94.4881 27.992 94.8148 28.4493 95.4681 28.636L95.7201 28.72V29H89.1401ZM107.008 13.656C106.373 13.656 105.832 13.46 105.384 13.068C104.954 12.6573 104.74 12.144 104.74 11.528C104.74 10.8933 104.954 10.38 105.384 9.988C105.832 9.596 106.373 9.4 107.008 9.4C107.642 9.4 108.174 9.596 108.604 9.988C109.033 10.38 109.248 10.8933 109.248 11.528C109.248 12.144 109.033 12.6573 108.604 13.068C108.174 13.46 107.642 13.656 107.008 13.656ZM103.704 29V28.72L104.096 28.608C104.469 28.496 104.721 28.328 104.852 28.104C105.001 27.88 105.076 27.5813 105.076 27.208V18.444C105.076 18.052 105.001 17.7627 104.852 17.576C104.721 17.3707 104.469 17.2307 104.096 17.156L103.704 17.072V16.792L108.828 15.14L109.108 15.42L109.024 19.396V27.236C109.024 27.6093 109.089 27.908 109.22 28.132C109.369 28.356 109.621 28.524 109.976 28.636L110.256 28.72V29H103.704ZM116.414 29.084L110.422 12.396C110.292 12.0227 110.114 11.7333 109.89 11.528C109.685 11.304 109.396 11.136 109.022 11.024L108.35 10.8V10.52H116.414V10.8L115.546 11.052C115.117 11.164 114.874 11.36 114.818 11.64C114.781 11.92 114.828 12.2653 114.958 12.676L119.102 24.968L123.274 12.648C123.424 12.2187 123.489 11.864 123.47 11.584C123.47 11.304 123.256 11.108 122.826 10.996L122.098 10.8V10.52H126.018V10.8L125.262 11.024C124.908 11.1173 124.656 11.2853 124.506 11.528C124.357 11.752 124.217 12.0507 124.086 12.424L118.486 29.084H116.414ZM127.382 13.656C126.747 13.656 126.206 13.46 125.758 13.068C125.329 12.6573 125.114 12.144 125.114 11.528C125.114 10.8933 125.329 10.38 125.758 9.988C126.206 9.596 126.747 9.4 127.382 9.4C128.017 9.4 128.549 9.596 128.978 9.988C129.407 10.38 129.622 10.8933 129.622 11.528C129.622 12.144 129.407 12.6573 128.978 13.068C128.549 13.46 128.017 13.656 127.382 13.656ZM124.078 29V28.72L124.47 28.608C124.843 28.496 125.095 28.328 125.226 28.104C125.375 27.88 125.45 27.5813 125.45 27.208V18.444C125.45 18.052 125.375 17.7627 125.226 17.576C125.095 17.3707 124.843 17.2307 124.47 17.156L124.078 17.072V16.792L129.202 15.14L129.482 15.42L129.398 19.396V27.236C129.398 27.6093 129.463 27.908 129.594 28.132C129.743 28.356 129.995 28.524 130.35 28.636L130.63 28.72V29H124.078ZM135.034 29.42C134.119 29.42 133.298 29.308 132.57 29.084C131.842 28.8787 131.17 28.6173 130.554 28.3L130.582 24.968H130.862L131.814 26.648C132.224 27.3947 132.672 27.9547 133.158 28.328C133.662 28.6827 134.296 28.86 135.062 28.86C135.958 28.86 136.676 28.664 137.218 28.272C137.778 27.8613 138.058 27.32 138.058 26.648C138.058 26.032 137.862 25.528 137.47 25.136C137.078 24.744 136.35 24.3893 135.286 24.072L134.11 23.708C132.971 23.372 132.075 22.8493 131.422 22.14C130.768 21.4307 130.442 20.5627 130.442 19.536C130.442 18.304 130.927 17.2587 131.898 16.4C132.868 15.5413 134.259 15.112 136.07 15.112C136.798 15.112 137.479 15.196 138.114 15.364C138.767 15.5133 139.392 15.7467 139.99 16.064L139.822 19.088H139.542L138.562 17.352C138.207 16.736 137.852 16.3067 137.498 16.064C137.162 15.8027 136.648 15.672 135.958 15.672C135.323 15.672 134.726 15.8493 134.166 16.204C133.606 16.5587 133.326 17.0627 133.326 17.716C133.326 18.3507 133.559 18.8547 134.026 19.228C134.511 19.6013 135.22 19.9467 136.154 20.264L137.414 20.628C138.758 21.0387 139.719 21.608 140.298 22.336C140.876 23.0453 141.166 23.904 141.166 24.912C141.166 26.2747 140.624 27.3667 139.542 28.188C138.478 29.0093 136.975 29.42 135.034 29.42ZM143.983 13.656C143.348 13.656 142.807 13.46 142.359 13.068C141.93 12.6573 141.715 12.144 141.715 11.528C141.715 10.8933 141.93 10.38 142.359 9.988C142.807 9.596 143.348 9.4 143.983 9.4C144.618 9.4 145.15 9.596 145.579 9.988C146.008 10.38 146.223 10.8933 146.223 11.528C146.223 12.144 146.008 12.6573 145.579 13.068C145.15 13.46 144.618 13.656 143.983 13.656ZM140.679 29V28.72L141.071 28.608C141.444 28.496 141.696 28.328 141.827 28.104C141.976 27.88 142.051 27.5813 142.051 27.208V18.444C142.051 18.052 141.976 17.7627 141.827 17.576C141.696 17.3707 141.444 17.2307 141.071 17.156L140.679 17.072V16.792L145.803 15.14L146.083 15.42L145.999 19.396V27.236C145.999 27.6093 146.064 27.908 146.195 28.132C146.344 28.356 146.596 28.524 146.951 28.636L147.231 28.72V29H140.679ZM153.875 29.42C152.456 29.42 151.224 29.1307 150.179 28.552C149.133 27.9547 148.321 27.1147 147.743 26.032C147.183 24.9493 146.903 23.68 146.903 22.224C146.903 20.768 147.201 19.508 147.799 18.444C148.415 17.38 149.245 16.5587 150.291 15.98C151.355 15.4013 152.549 15.112 153.875 15.112C155.2 15.112 156.385 15.4013 157.431 15.98C158.476 16.54 159.297 17.352 159.895 18.416C160.511 19.48 160.819 20.7493 160.819 22.224C160.819 23.6987 160.529 24.9773 159.951 26.06C159.391 27.124 158.588 27.9547 157.543 28.552C156.516 29.1307 155.293 29.42 153.875 29.42ZM153.875 28.86C154.528 28.86 155.051 28.6733 155.443 28.3C155.835 27.9267 156.115 27.264 156.283 26.312C156.469 25.36 156.563 24.016 156.563 22.28C156.563 20.5253 156.469 19.172 156.283 18.22C156.115 17.268 155.835 16.6053 155.443 16.232C155.051 15.8587 154.528 15.672 153.875 15.672C153.221 15.672 152.689 15.8587 152.279 16.232C151.887 16.6053 151.597 17.268 151.411 18.22C151.243 19.172 151.159 20.5253 151.159 22.28C151.159 24.016 151.243 25.36 151.411 26.312C151.597 27.264 151.887 27.9267 152.279 28.3C152.689 28.6733 153.221 28.86 153.875 28.86ZM160.368 29V28.72L160.76 28.608C161.414 28.4213 161.74 27.964 161.74 27.236V18.472C161.74 18.0613 161.675 17.7627 161.544 17.576C161.414 17.3707 161.162 17.2307 160.788 17.156L160.368 17.044V16.764L165.156 15.14L165.436 15.42L165.66 17.1C166.314 16.5213 167.051 16.0453 167.872 15.672C168.694 15.2987 169.506 15.112 170.308 15.112C171.54 15.112 172.483 15.448 173.136 16.12C173.808 16.792 174.144 17.8187 174.144 19.2V27.264C174.144 27.992 174.499 28.4493 175.208 28.636L175.46 28.72V29H168.852V28.72L169.216 28.608C169.87 28.4027 170.196 27.9453 170.196 27.236V18.304C170.196 17.1093 169.599 16.512 168.404 16.512C167.583 16.512 166.687 16.9227 165.716 17.744V27.264C165.716 27.992 166.043 28.4493 166.696 28.636L166.948 28.72V29H160.368ZM178.516 29.42C177.844 29.42 177.275 29.1867 176.808 28.72C176.341 28.2533 176.108 27.6933 176.108 27.04C176.108 26.3867 176.341 25.8173 176.808 25.332C177.275 24.8467 177.844 24.604 178.516 24.604C179.188 24.604 179.757 24.8467 180.224 25.332C180.691 25.8173 180.924 26.3867 180.924 27.04C180.924 27.6933 180.691 28.2533 180.224 28.72C179.757 29.1867 179.188 29.42 178.516 29.42ZM184.95 13.656C184.316 13.656 183.774 13.46 183.326 13.068C182.897 12.6573 182.682 12.144 182.682 11.528C182.682 10.8933 182.897 10.38 183.326 9.988C183.774 9.596 184.316 9.4 184.95 9.4C185.585 9.4 186.117 9.596 186.546 9.988C186.976 10.38 187.19 10.8933 187.19 11.528C187.19 12.144 186.976 12.6573 186.546 13.068C186.117 13.46 185.585 13.656 184.95 13.656ZM181.646 29V28.72L182.038 28.608C182.412 28.496 182.664 28.328 182.794 28.104C182.944 27.88 183.018 27.5813 183.018 27.208V18.444C183.018 18.052 182.944 17.7627 182.794 17.576C182.664 17.3707 182.412 17.2307 182.038 17.156L181.646 17.072V16.792L186.77 15.14L187.05 15.42L186.966 19.396V27.236C186.966 27.6093 187.032 27.908 187.162 28.132C187.312 28.356 187.564 28.524 187.918 28.636L188.198 28.72V29H181.646ZM194.842 29.42C193.423 29.42 192.191 29.1307 191.146 28.552C190.101 27.9547 189.289 27.1147 188.71 26.032C188.15 24.9493 187.87 23.68 187.87 22.224C187.87 20.768 188.169 19.508 188.766 18.444C189.382 17.38 190.213 16.5587 191.258 15.98C192.322 15.4013 193.517 15.112 194.842 15.112C196.167 15.112 197.353 15.4013 198.398 15.98C199.443 16.54 200.265 17.352 200.862 18.416C201.478 19.48 201.786 20.7493 201.786 22.224C201.786 23.6987 201.497 24.9773 200.918 26.06C200.358 27.124 199.555 27.9547 198.51 28.552C197.483 29.1307 196.261 29.42 194.842 29.42ZM194.842 28.86C195.495 28.86 196.018 28.6733 196.41 28.3C196.802 27.9267 197.082 27.264 197.25 26.312C197.437 25.36 197.53 24.016 197.53 22.28C197.53 20.5253 197.437 19.172 197.25 18.22C197.082 17.268 196.802 16.6053 196.41 16.232C196.018 15.8587 195.495 15.672 194.842 15.672C194.189 15.672 193.657 15.8587 193.246 16.232C192.854 16.6053 192.565 17.268 192.378 18.22C192.21 19.172 192.126 20.5253 192.126 22.28C192.126 24.016 192.21 25.36 192.378 26.312C192.565 27.264 192.854 27.9267 193.246 28.3C193.657 28.6733 194.189 28.86 194.842 28.86Z" fill="#19181F"/>
</svg>
